<svg width="512" height="512" viewBox="0 0 512 512" fill="none" xmlns="http://www.w3.org/2000/svg">
<g clip-path="url(#clip0_1_2)">
<rect width="512" height="512" fill="white"/>
<rect width="512" height="512" rx="128" fill="url(#paint0_linear_1_2)"/>
<mask id="mask0_1_2" style="mask-type:alpha" maskUnits="userSpaceOnUse" x="0" y="0" width="512" height="512">
<rect width="512" height="512" rx="128" fill="#3897F0"/>
</mask>
<g mask="url(#mask0_1_2)">
<path d="M458.603 189.835L831.455 64.3366L931.36 662.593L658.414 935.539L60.1572 835.634L185.656 462.782L458.603 189.835Z" fill="#4B98E0"/>
</g>
<g clip-path="url(#clip1_1_2)">
<path d="M165.719 99.5079L101.965 163.262C70.3033 194.924 67.1126 244.275 92.3927 279.503C93.7267 277.896 95.1467 276.337 96.6524 274.831C123.06 248.424 165.875 248.423 192.283 274.831L208.222 290.77L293.227 205.765L277.289 189.826C250.881 163.418 250.881 120.603 277.289 94.1951C278.794 92.6894 280.354 91.2693 281.96 89.935C246.733 64.655 197.382 67.8456 165.719 99.5079ZM304.384 110.665C302.318 112.033 300.359 113.627 298.54 115.446C283.869 130.117 283.869 153.904 298.54 168.575L346.355 216.39L325.104 237.642L314.478 227.016L229.473 312.021L240.099 322.647L218.848 343.898L171.032 296.083C156.361 281.412 132.575 281.412 117.904 296.083C116.084 297.902 114.49 299.862 113.122 301.927C103.458 316.513 105.052 336.359 117.904 349.211C124.158 355.465 130.873 358.318 138.577 361.592C148.945 365.996 161.104 371.163 176.343 386.403L208.22 418.28C214.088 424.149 223.602 424.149 229.471 418.28L325.104 322.647L420.737 227.014C426.606 221.145 426.606 211.631 420.737 205.762L388.86 173.885C373.62 158.647 368.454 146.487 364.049 136.12C360.776 128.415 357.923 121.701 351.668 115.446C338.817 102.595 318.97 101.001 304.384 110.665Z" fill="white"/>
</g>
</g>
<defs>
<linearGradient id="paint0_linear_1_2" x1="512" y1="512" x2="0" y2="0" gradientUnits="userSpaceOnUse">
<stop stop-color="#B8DAFA"/>
<stop offset="1" stop-color="#3897F0"/>
</linearGradient>
<clipPath id="clip0_1_2">
<rect width="512" height="512" fill="white"/>
</clipPath>
<clipPath id="clip1_1_2">
<rect width="360.647" height="360.647" fill="white" transform="translate(-25.5427 227.016) rotate(-45)"/>
</clipPath>
</defs>
</svg>
